HIERARCHY
ROOT Hips
{
  OFFSET 0 0 0
  CHANNELS 6 Xposition Yposition Zposition Zrotation Yrotation Xrotation
  JOINT LeftThigh
  {
    OFFSET 8.409438 0 -5.917753
    CHANNELS 3 Zrotation Yrotation Xrotation
    JOINT LeftLeg
    {
      OFFSET 0 0 -42.358652
      CHANNELS 3 Zrotation Yrotation Xrotation
      JOINT LeftFoot
      {
        OFFSET 0 0 -39.357303
        CHANNELS 3 Zrotation Yrotation Xrotation
      }
    }
  }
  JOINT RightThigh
  {
    OFFSET -8.409438 0 -5.917753
    CHANNELS 3 Zrotation Yrotation Xrotation
    JOINT RightLeg
    {
      OFFSET 0 0 -42.358652
      CHANNELS 3 Zrotation Yrotation Xrotation
      JOINT RightFoot
      {
        OFFSET 0 0 -39.357303
        CHANNELS 3 Zrotation Yrotation Xrotation
      }
    }
  }
  JOINT SpineLow
  {
    OFFSET 0 0 4.719101
    CHANNELS 3 Zrotation Yrotation Xrotation
    JOINT SpineMid
    {
      OFFSET 0 0 12.899191
      CHANNELS 3 Zrotation Yrotation Xrotation
      JOINT Chest
      {
        OFFSET 0 0 12.899191
        CHANNELS 3 Zrotation Yrotation Xrotation
        JOINT LeftShoulder
        {
          OFFSET 7.550562 1.41573 9.438202
          CHANNELS 3 Zrotation Yrotation Xrotation
          JOINT LeftArm
          {
            OFFSET 9.155056 0 4.247191
            CHANNELS 3 Zrotation Yrotation Xrotation
            JOINT LeftForearm
            {
              OFFSET 0 0 25.771955
              CHANNELS 3 Zrotation Yrotation Xrotation
              JOINT LeftHand
              {
                OFFSET 0 0 25.197169
                CHANNELS 3 Zrotation Yrotation Xrotation
              }
            }
          }
        }
        JOINT RightShoulder
        {
          OFFSET -7.550562 1.41573 9.438202
          CHANNELS 3 Zrotation Yrotation Xrotation
          JOINT RightArm
          {
            OFFSET -9.155056 0 4.247191
            CHANNELS 3 Zrotation Yrotation Xrotation
            JOINT RightForearm
            {
              OFFSET 0 0 -25.771955
              CHANNELS 3 Zrotation Yrotation Xrotation
              JOINT RightHand
              {
                OFFSET 0 0 -25.197169
                CHANNELS 3 Zrotation Yrotation Xrotation
              }
            }
          }
        }
        JOINT Neck
        {
          OFFSET 0 0 15.101124
          CHANNELS 3 Zrotation Yrotation Xrotation
          JOINT Head
          {
            OFFSET 0 0 11.325843
            CHANNELS 3 Zrotation Yrotation Xrotation
            End Site
            {
              OFFSET 0 0 14.157303
            }
          }
        }
      }
    }
  }
}
MOTION
Frames: 16
Frame Time: 0.0
0.0  93.25843  0.0  -3.58834  -8.343372  -88.316702  14.364595  -18.165294  -4.663009  -1.087348  1.903626  15.766961  5.835122  0.707604  2.113625  -8.44823  1.869445  -7.965691  3.088798  6.219827  7.72975  0.393683  0.875116  -0.051771  0.598363  -1.12059  -0.522621  1.660792  -3.049699  -1.457124  1.660792  -3.049699  -1.457124  -23.991826  29.611296  -5.438295  136.74232  51.165921  -152.550106  0.980982  -11.233557  96.043477  93.410695  -24.537106  -4.083774  -4.337481  -4.69821  36.113387  86.680701  37.727602  37.32728  -14.026582  -1.784304  -103.008819  73.154077  18.774656  -4.671827  -2.692538  7.919713  11.448904  -2.166307  5.89202  8.608207  
0.0  93.25843  0.0  -3.632297  -6.437789  -88.497402  14.809162  -18.49659  -5.115334  -2.271303  2.296687  15.879344  5.532201  0.620472  1.96888  -8.689251  2.063618  -7.392781  2.287495  6.098122  7.712749  0.232723  0.941163  -0.097341  0.498439  -1.124596  -0.448844  1.384178  -3.06444  -1.250828  1.384177  -3.06444  -1.250828  -25.023085  29.245719  -6.144721  136.16807  51.379091  -151.763841  2.148515  -14.190432  96.50524  90.543341  -23.758861  -5.45969  -4.155624  -4.62188  35.995986  86.336458  37.890018  36.298722  -13.294042  -4.657873  -104.534806  72.477098  19.239446  -5.140778  -3.168828  7.8143  11.258618  -2.518708  5.804971  8.471799  
0.0  93.25843  0.0  -3.643071  -3.681854  -88.446914  13.970315  -18.749726  -5.999906  -3.15712  2.686732  16.124077  5.388246  0.549206  1.981751  -9.83952  2.26682  -7.05445  1.546472  6.018374  7.708061  0.154285  0.957027  -0.162546  0.29769  -1.135554  -0.443546  0.835075  -3.098285  -1.227183  0.835075  -3.098285  -1.227183  -26.007248  29.036228  -6.460256  135.748875  51.711455  -150.685188  3.2812  -15.826851  96.493489  89.118186  -23.629891  -6.975859  -3.668035  -4.390932  36.214595  85.6321  38.122936  35.003614  -12.508014  -7.595633  -106.290513  71.58618  19.533254  -5.522923  -3.817095  7.735529  11.080563  -3.000651  5.735061  8.346675  
0.0  93.25843  0.0  -3.634191  -1.231941  -88.567298  13.311451  -18.941145  -6.730091  -3.70291  2.998871  16.60406  4.766608  0.482377  1.634952  -10.562858  2.505175  -6.52445  1.069834  5.837007  7.78207  -0.114341  1.038426  -0.272761  0.207984  -1.111783  -0.427776  0.588541  -3.035131  -1.179605  0.588541  -3.035131  -1.179605  -27.031636  28.772516  -6.277215  135.28627  52.066999  -149.554818  2.078455  -14.427112  96.271265  89.18315  -24.417501  -6.11716  -3.603966  -4.335481  36.561288  85.014796  38.357486  33.653805  -12.041132  -9.823114  -108.295501  71.314349  20.001005  -5.416923  -4.569788  7.516444  10.982846  -3.559548  5.557841  8.282278  
0.0  93.25843  0.0  -3.591877  1.94848  -88.501098  11.773511  -19.089906  -7.685219  -4.252025  3.393846  16.919087  4.797156  0.433822  1.620284  -12.076262  2.776979  -6.223914  0.386227  5.722081  7.783251  -0.231439  1.07227  -0.326891  0.096281  -1.063117  -0.437902  0.282591  -2.904066  -1.201907  0.282591  -2.904066  -1.201907  -28.582774  28.413511  -6.021271  134.796496  52.331011  -148.435944  -0.385883  -11.176165  96.694964  89.708207  -24.680581  -3.912786  -3.903745  -4.526191  36.887692  84.380409  38.739392  32.226513  -12.100347  -11.452438  -110.249545  70.558554  20.369559  -6.175556  -5.756999  7.230448  10.786715  -4.441861  5.323904  8.148512  
0.0  93.25843  0.0  -3.571081  4.311741  -88.803923  11.110623  -19.296626  -8.186259  -4.463263  3.760189  17.236607  4.65179  0.292426  1.663792  -12.57651  3.119069  -5.518592  0.066159  5.548991  7.891386  -0.541271  1.137333  -0.428151  0.211705  -1.019678  -0.364564  0.594362  -2.783898  -1.005968  0.594362  -2.783898  -1.005968  -30.791382  28.030985  -5.944535  133.968965  52.342673  -147.552785  -2.302749  -8.094064  96.61785  89.898589  -24.902575  -2.235065  -4.768239  -4.897959  36.995718  83.896816  39.211235  30.868716  -12.393349  -12.859243  -112.169598  69.657269  20.601555  -7.341679  -7.295129  6.920966  10.515934  -5.586226  5.068001  7.961606  
0.0  93.25843  0.0  -3.551233  7.760145  -88.742552  9.332536  -19.404437  -9.163783  -4.59294  4.066485  17.531924  4.669126  0.159654  1.780617  -14.118311  3.406117  -5.177285  -0.823978  5.421372  7.860422  -0.743241  1.195564  -0.491644  0.153848  -0.987892  -0.384288  0.436444  -2.697767  -1.057236  0.436444  -2.697768  -1.057236  -32.850723  27.849416  -5.875131  132.580641  52.082531  -147.17871  -3.840995  -6.572258  96.57605  88.82529  -24.565385  -1.226435  -5.503725  -5.343642  37.140223  83.562249  39.762278  29.61282  -12.658662  -14.417227  -114.070718  69.278746  20.788691  -8.408761  -8.809598  6.688109  10.347171  -6.715624  4.869961  7.850232  
0.0  93.25843  0.0  -3.554887  11.15178  -88.749215  7.853416  -19.551041  -10.026691  -4.677497  4.302886  17.798852  4.464126  0.003165  1.844996  -15.312241  3.702469  -4.718132  -1.61251  5.291505  7.892737  -1.051674  1.217755  -0.576654  0.025928  -1.008207  -0.417405  0.088325  -2.75529  -1.142627  0.088325  -2.75529  -1.142627  -34.419764  28.005894  -6.050248  130.955124  51.651918  -147.116166  -5.181621  -5.947788  96.554009  87.529716  -23.785919  -0.836032  -5.681265  -5.564115  37.219125  83.240559  40.38247  28.443264  -12.804579  -16.017183  -116.01448  69.190338  20.895859  -9.134808  -10.030237  6.64346  10.26445  -7.628765  4.817473  7.801608  
0.0  93.25843  0.0  -3.540837  14.729221  -88.688853  6.259861  -19.684325  -10.983947  -4.639064  4.473343  18.126804  3.992509  -0.170605  1.843382  -16.71279  4.033993  -4.312258  -2.872547  5.147919  7.766147  -1.225454  1.253757  -0.6143  -0.259193  -1.079639  -0.492165  -0.686884  -2.956185  -1.334509  -0.686884  -2.956185  -1.334509  -35.071449  28.580475  -6.366571  129.594025  51.114624  -146.877484  -6.430854  -5.191137  96.423707  86.830853  -22.934502  -0.577063  -5.09598  -5.520473  37.289031  83.053923  41.080435  27.433414  -12.751969  -17.645557  -117.986092  69.064509  20.863445  -9.632489  -10.775175  6.826641  10.286536  -8.189884  4.942313  7.829462  
0.0  93.25843  0.0  -3.427725  17.33646  -88.987575  6.722764  -19.682155  -10.971733  -5.494593  4.585594  17.780016  3.396566  -0.362441  1.719084  -16.789384  4.571539  -3.423508  -3.931854  5.012344  7.656452  -1.733013  1.253399  -0.71869  -0.443744  -1.134499  -0.450892  -1.192529  -3.109076  -1.212416  -1.192529  -3.109076  -1.212416  -35.459503  28.939656  -7.040637  131.139645  50.699155  -146.539569  -6.338818  -3.122105  98.276301  86.648032  -21.976344  -0.542254  -3.816549  -5.759682  37.078664  82.709519  42.124146  26.540496  -12.363282  -19.554293  -120.068066  68.773209  20.843977  -10.036865  -11.332583  6.967789  10.1649  -8.608098  5.041292  7.747141  
0.0  93.25843  0.0  -3.358614  20.795099  -88.866034  5.629091  -19.665506  -11.794363  -6.11558  4.719868  17.716593  2.789988  -0.515922  1.638998  -17.930149  4.960494  -2.992321  -5.299948  4.810131  7.449764  -1.904416  1.262448  -0.734435  -0.703606  -1.14407  -0.495158  -1.901024  -3.141164  -1.320947  -1.901024  -3.141164  -1.320947  -35.905935  29.121722  -7.499537  130.649654  50.084281  -145.909609  -6.754973  -2.386861  98.35725  86.57725  -20.850657  -0.787921  -3.237463  -6.359073  36.640948  83.230859  43.237436  26.270997  -11.72882  -21.739827  -122.242629  68.332994  20.736849  -10.402466  -12.125708  6.936583  10.113992  -9.201357  5.005964  7.717994  
0.0  93.25843  0.0  -3.228679  24.145535  -88.750786  4.530674  -19.374763  -12.489907  -7.268381  4.753818  17.337369  2.592818  -0.640355  1.758706  -18.666142  5.395479  -2.441655  -6.598362  4.614202  7.234994  -2.245044  1.238704  -0.758764  -0.902342  -1.070419  -0.549881  -2.443455  -2.94577  -1.46374  -2.443455  -2.94577  -1.463739  -36.327089  29.100582  -7.560826  130.459837  49.472907  -145.32614  -6.76299  -1.728656  98.536548  86.324502  -19.876771  -1.097841  -2.201469  -7.575683  36.744044  82.806135  45.166299  25.618817  -10.953099  -23.8524  -124.437961  67.995177  20.546664  -10.538846  -13.044604  6.684156  10.198849  -9.887514  4.799826  7.787859  
0.0  93.25843  0.0  -3.072964  27.37752  -88.581285  3.635637  -19.135493  -13.025657  -8.707045  4.897286  16.737336  2.321785  -0.781681  1.736916  -19.456819  5.813671  -1.937461  -7.997967  4.386711  6.937467  -2.497036  1.204992  -0.749957  -1.007573  -0.978634  -0.602908  -2.730894  -2.699403  -1.607697  -2.730894  -2.699403  -1.607697  -37.053114  28.906519  -7.553484  130.851217  48.72104  -144.438655  -6.4585  -0.815501  98.755296  85.998281  -19.208878  -1.260245  -2.546374  -8.619498  36.21107  83.669982  46.785573  25.587493  -10.583083  -25.471244  -126.247974  67.797069  20.410251  -10.340766  -14.333089  6.360604  10.242687  -10.849271  4.534895  7.828909  
0.0  93.25843  0.0  -2.82383  30.487356  -88.409073  2.445839  -18.768428  -13.422267  -10.354231  5.102332  15.915724  2.446112  -0.902327  1.9209  -20.096892  6.306731  -1.364628  -9.258625  4.200879  6.633922  -2.704052  1.135462  -0.714777  -0.933604  -0.932749  -0.578186  -2.530613  -2.571302  -1.544841  -2.530613  -2.571302  -1.544841  -38.99215  28.675234  -8.223173  131.832378  47.834256  -143.337325  -5.949158  0.513598  99.032711  85.525888  -18.85794  -1.129072  -3.694724  -9.60448  35.054729  84.122132  48.690776  25.668261  -10.755301  -26.459726  -127.469676  67.680331  20.249624  -10.086571  -16.254743  6.10788  9.961275  -12.283142  4.321115  7.633267  
0.0  93.25843  0.0  -2.566583  33.355261  -88.211701  1.315241  -18.412983  -13.60333  -11.644349  5.081084  15.137721  2.361484  -1.001034  1.957891  -20.690279  6.755083  -0.796372  -10.647564  3.981233  6.251137  -2.972274  1.095546  -0.686497  -1.062432  -0.880962  -0.642067  -2.88162  -2.435508  -1.716642  -2.88162  -2.435508  -1.716642  -38.764332  28.795777  -7.996449  132.957276  47.058088  -142.372172  -5.50449  2.286505  99.533357  84.849364  -18.693665  -0.810534  -3.5563  -10.466022  34.42719  84.021909  50.805216  25.280411  -11.172404  -26.942381  -128.224244  67.6758  19.997717  -9.723767  -17.276108  6.059786  10.026735  -13.048774  4.266954  7.692194  
0.0  93.25843  0.0  -2.190422  36.079345  -87.895538  -0.154857  -17.918636  -13.614228  -12.623283  4.926484  14.314959  2.490721  -1.129305  2.09451  -21.352557  7.22832  -0.315359  -12.180489  3.816042  5.81177  -2.985657  1.036458  -0.631686  -1.158708  -0.814529  -0.750924  -3.142692  -2.261584  -2.013726  -3.142692  -2.261584  -2.013726  -38.352018  28.92032  -7.544404  134.144499  46.190914  -141.753993  -5.175766  4.387356  100.283164  84.194787  -18.485701  -0.442796  -3.609523  -11.548495  33.871547  82.913384  53.139111  24.487188  -11.084179  -27.119363  -128.929938  67.768847  19.704417  -9.257895  -18.264364  6.070911  10.244677  -13.791998  4.253077  7.866691  
